<svg width="245" height="84" viewBox="0 0 245 84" fill="none" xmlns="http://www.w3.org/2000/svg">
<g id="Group">
<path id="Vector" d="M131.099 20.6998V58.9998C131.099 59.8998 130.599 60.3998 129.699 60.3998H124.899C123.999 60.3998 123.499 59.8998 123.499 58.9998V56.9998C121.399 59.6998 118.299 61.2998 113.999 61.2998C106.199 61.2998 99.6992 54.5998 99.6992 45.7998C99.6992 36.9998 106.199 30.2998 113.999 30.2998C118.299 30.2998 121.399 31.8998 123.499 34.5998V20.6998C123.499 19.7998 123.999 19.2998 124.899 19.2998H129.699C130.599 19.2998 131.099 19.7998 131.099 20.6998ZM123.499 45.6998C123.499 40.7998 119.999 37.3998 115.399 37.3998C110.699 37.3998 107.299 40.7998 107.299 45.6998C107.299 50.5998 110.799 53.9998 115.399 53.9998C119.999 53.9998 123.499 50.6998 123.499 45.6998Z" fill="#DD4B25"/>
<path id="Vector_2" d="M158.599 31C159.499 31 159.999 31.5 159.999 32.4V59C159.999 59.9 159.499 60.4 158.599 60.4H153.799C152.899 60.4 152.399 59.9 152.399 59V57.4C150.799 59.9 148.099 61.2 144.399 61.2C138.899 61.2 134.799 57 134.799 49.8V32.4C134.799 31.5 135.299 31 136.199 31H140.999C141.899 31 142.399 31.5 142.399 32.4V49.2C142.399 52.6 144.399 54.2 147.099 54.2C150.099 54.2 152.399 52.5 152.399 48.1V32.4C152.399 31.5 152.899 31 153.799 31H158.599Z" fill="#DD4B25"/>
<path id="Vector_3" d="M188.998 60.3998H183.398C182.698 60.3998 182.098 60.0998 181.698 59.4998L171.998 47.0998V58.9998C171.998 59.8998 171.498 60.3998 170.598 60.3998H165.798C164.898 60.3998 164.398 59.8998 164.398 58.9998V20.6998C164.398 19.7998 164.898 19.2998 165.798 19.2998H170.598C171.498 19.2998 171.998 19.7998 171.998 20.6998V43.9998L181.098 31.8998C181.498 31.2998 182.098 30.9998 182.798 30.9998H188.398C189.498 30.9998 189.898 31.7998 189.198 32.6998L179.298 45.5998L189.698 58.7998C190.598 59.6998 190.198 60.3998 188.998 60.3998Z" fill="#DD4B25"/>
<path id="Vector_4" d="M205.3 41C211.8 41 217.3 44.9 217.3 52.5V69.8C217.3 70.7 216.8 71.2 215.9 71.2H211.3C210.4 71.2 209.9 70.7 209.9 69.8V68.7C208.2 70.8 205.7 72 201.9 72C196.7 72 192 68.9 192 62.8C192 56.6 196.7 53.6 201.9 53.6C205.6 53.6 208.2 54.7 209.9 56.2V53.1C209.9 49.6 208.1 48.2 205.3 48.2C203.1 48.2 201.4 49.1 200.9 50.7C200.6 51.5 200.3 51.9 199.4 51.9H194.7C193.8 51.9 193.2 51.4 193.3 50.4C194.1 44.4 199.3 41 205.3 41ZM209.8 62.8C209.8 60.5 207.7 59.1 204.4 59.1C201.1 59.1 199.5 60.6 199.5 62.8C199.5 65 201.1 66.5 204.4 66.5C207.8 66.4 209.8 64.9 209.8 62.8Z" fill="#E98B2E"/>
<path id="Vector_5" d="M234.6 27C240.1 27 244.2 31.2 244.2 38.4V55.8C244.2 56.7 243.7 57.2 242.8 57.2H238C237.1 57.2 236.6 56.7 236.6 55.8V39C236.6 35.6 234.6 34 231.9 34C228.9 34 226.6 35.7 226.6 40.1V55.8C226.6 56.7 226.1 57.2 225.2 57.2H220.4C219.5 57.2 219 56.7 219 55.8V29.2C219 28.3 219.5 27.8 220.4 27.8H225.2C226.1 27.8 226.6 28.3 226.6 29.2V30.8C228.2 28.4 230.9 27 234.6 27Z" fill="#DD4B25"/>
<path id="Vector_6" d="M42.1 84.2C65.3512 84.2 84.2 65.3512 84.2 42.1C84.2 18.8488 65.3512 0 42.1 0C18.8488 0 0 18.8488 0 42.1C0 65.3512 18.8488 84.2 42.1 84.2Z" fill="#DD4B25"/>
<path id="Vector_7" d="M58.6992 20H25.4992C22.2992 20 19.6992 22.6 19.6992 25.8V58.3C19.6992 61.5 22.2992 64.1 25.4992 64.1H58.6992C61.8992 64.1 64.4992 61.5 64.4992 58.3V25.8C64.4992 22.6 61.8992 20 58.6992 20ZM42.0992 45.9C33.8992 45.9 27.0992 39.5 26.3992 31.4C26.2992 30.5 26.5992 29.7 27.1992 29.1C27.7992 28.5 28.4992 28.1 29.3992 28C30.1992 27.9 31.0992 28.2 31.6992 28.7C32.3992 29.3 32.6992 30 32.7992 30.9C33.1992 35.7 37.1992 39.5 42.0992 39.5C46.8992 39.5 50.9992 35.7 51.3992 30.9C51.4992 29.2 53.0992 27.9 54.7992 28C55.6992 28.1 56.3992 28.5 56.9992 29.1C57.5992 29.7 57.7992 30.6 57.7992 31.4C57.0992 39.5 50.1992 45.9 42.0992 45.9Z" fill="white"/>
</g>
</svg>
